Genre:Drama
Language:English
IMDb:http://www.imdb.com/title/tt1103274/
Source:BluRay.x264-SEMTE


Format : Matroska
File size : 1.66 GiB
Duration : 1h 33mn
Overall bit rate : 2 561 Kbps


Video
Format settings, CABAC : Yes
Format settings, ReFrames : 4 frames
Codec ID : V_MPEG4/ISO/AVC
Duration : 1h 33mn
Bit rate : 2 200 Kbps
Width : 1 280 pixels
Height : 544 pixels
Display aspect ratio : 2.35:1
Frame rate mode : Variable
Frame rate : 23.976 fps
Color space : YUV
Chroma subsampling : 4:2:0
Bit depth : 8 bits
Scan type : Progressive
Bits/(Pixel*Frame) : 0.132
Stream size : 1.38 GiB (83%)
Writing library : x264

Audio
ID : 2
Format : AC-3
Format/Info : Audio Coding 3
Mode extension : CM (complete main)
Codec ID : A_AC3
Duration : 1h 33mn
Bit rate mode : Constant
Bit rate : 384 Kbps
Channel(s) : 6 channels
Channel positions : Front: L C R, Side: L R, LFE
Sampling rate : 48.0 KHz
Bit depth : 16 bits
Video delay : -1mn 5s
Stream size : 256 MiB (15%)
Language : English



Plot:
Based on a true story, this film shares with us a decade in the lives of Jimmie Lewallen and his wife
 
http://rapidhdd.com/images/343084vlcsnap-00001.png
 
http://www.rapidhdd.com/images/115724vlcsnap-00002.png
 
http://www.rapidhdd.com/images/749241vlcsnap-00003.png
 
http://www.rapidhdd.com/images/376094vlcsnap-00004.png
 
http://www.rapidhdd.com/images/533480vlcsnap-00005.png

Greets:

INK,CRYS,IMAGINE,LKRG,FXG,3Li,FLAWL3SS,TA,iLLUSiON,ViSiON,LU,TheFalcon007,PrisM,Noir,WBZ,LAP,Rx,Kingdom,SAFCuk009+Fabreezy,HDLiTE,TWiZTED,ExtraTorrentRG.ELEKTRI4KA,MAGNAT,CM8
And to all the other p2p grps past and present




Make sure its a real Feel-Free release @ extratorrent